# xmcd CD database file
#
# Track frame offsets:
#	225
#	16007
#	32554
#	44753
#	63001
#	77671
#	94746
#	112054
#	128104
#	142056
#	154499
#	172823
#	189504
#	204361
#	221336
#	234494
#	247180
#	266647
#	284956
#	303315
#	321208
#
# Disc length: 4587 seconds
#
# Revision: 0
# Processed by: cddbd v1.4b41PL3 Copyright (c) Steve Scherf et al.
# Submitted via: Feurio! 1.61 - http://www.feurio.com
#
DISCID=3311e815
DTITLE=Scooter Lee - The Best Of Scooter Lee
DYEAR=1900
DGENRE=
TTITLE0=Honky Tonk Twist
TTITLE1=J'ai Du Boogie
TTITLE2=Dizzy
TTITLE3=Ribbon Of Highway
TTITLE4=Honey Hush
TTITLE5=Shadows In The Night
TTITLE6=Old Friend
TTITLE7=Rose Garden
TTITLE8=High Test Love
TTITLE9=Rompin' Stompin'
TTITLE10=Somebody Loves You
TTITLE11=Take It From Me
TTITLE12=Baby Please Come Home
TTITLE13=I Still Believe
TTITLE14=Walk On By
TTITLE15=Here Lately
TTITLE16=Baby Once I Get You (Dance Mix)
TTITLE17=Rex The Robot
TTITLE18=Break-A-Way
TTITLE19=Deal With It (DAnce MIx)
TTITLE20=Dancin' In The Streets
EXTD=
EXTT0=
EXTT1=
EXTT2=
EXTT3=
EXTT4=
EXTT5=
EXTT6=
EXTT7=
EXTT8=
EXTT9=
EXTT10=
EXTT11=
EXTT12=
EXTT13=
EXTT14=
EXTT15=
EXTT16=
EXTT17=
EXTT18=
EXTT19=
EXTT20=
PLAYORDER=
